<svg xmlns="http://www.w3.org/2000/svg" xmlns:xlink="http://www.w3.org/1999/xlink" width="500" zoomAndPan="magnify" viewBox="0 0 375 374.999991" height="500" preserveAspectRatio="xMidYMid meet" version="1.0"><defs><clipPath id="id1"><path d="M 147 62 L 375 62 L 375 375 L 147 375 Z M 147 62 " clip-rule="nonzero"/></clipPath><clipPath id="id2"><path d="M 147.609375 391.730469 L 379.300781 62.292969 L 403.226562 79.121094 L 171.535156 408.554688 Z M 147.609375 391.730469 " clip-rule="nonzero"/></clipPath><clipPath id="id3"><path d="M 170 80 L 375 80 L 375 375 L 170 375 Z M 170 80 " clip-rule="nonzero"/></clipPath><clipPath id="id4"><path d="M 170.070312 410.222656 L 401.761719 80.785156 L 425.6875 97.613281 L 193.996094 427.046875 Z M 170.070312 410.222656 " clip-rule="nonzero"/></clipPath><clipPath id="id5"><path d="M 186 108 L 375 108 L 375 375 L 186 375 Z M 186 108 " clip-rule="nonzero"/></clipPath><clipPath id="id6"><path d="M 186.75 437.566406 L 418.4375 108.132812 L 442.363281 124.957031 L 210.675781 454.394531 Z M 186.75 437.566406 " clip-rule="nonzero"/></clipPath></defs><g clip-path="url(#id1)"><g clip-path="url(#id2)"><path fill="#ffb562" d="M 147.609375 391.730469 L 379.300781 62.292969 L 403.226562 79.121094 L 171.535156 408.554688 L 147.609375 391.730469 " fill-opacity="1" fill-rule="nonzero"/></g></g><g clip-path="url(#id3)"><g clip-path="url(#id4)"><path fill="#f87474" d="M 170.070312 410.222656 L 401.761719 80.785156 L 425.6875 97.613281 L 193.996094 427.046875 L 170.070312 410.222656 " fill-opacity="1" fill-rule="nonzero"/></g></g><g clip-path="url(#id5)"><g clip-path="url(#id6)"><path fill="#3ab0ff" d="M 186.75 437.566406 L 418.4375 108.132812 L 442.363281 124.957031 L 210.675781 454.394531 L 186.75 437.566406 " fill-opacity="1" fill-rule="nonzero"/></g></g></svg>