<svg xmlns="http://www.w3.org/2000/svg" xmlns:xlink="http://www.w3.org/1999/xlink" width="1500" zoomAndPan="magnify" viewBox="0 0 1125 374.999991" height="500" preserveAspectRatio="xMidYMid meet" version="1.0"><defs><g/><clipPath id="id1"><path d="M 131 180 L 241 180 L 241 305 L 131 305 Z M 131 180 " clip-rule="nonzero"/></clipPath><clipPath id="id2"><path d="M 149.910156 180.597656 L 240.648438 204.164062 L 211.800781 315.230469 L 121.0625 291.660156 Z M 149.910156 180.597656 " clip-rule="nonzero"/></clipPath><clipPath id="id3"><path d="M 253 180 L 363 180 L 363 305 L 253 305 Z M 253 180 " clip-rule="nonzero"/></clipPath><clipPath id="id4"><path d="M 271.902344 180.332031 L 362.640625 203.902344 L 333.792969 314.964844 L 243.054688 291.398438 Z M 271.902344 180.332031 " clip-rule="nonzero"/></clipPath><clipPath id="id5"><path d="M 277 56 L 388 56 L 388 181 L 277 181 Z M 277 56 " clip-rule="nonzero"/></clipPath><clipPath id="id6"><path d="M 368.5 180.59375 L 277.820312 156.785156 L 306.960938 45.796875 L 397.636719 69.605469 Z M 368.5 180.59375 " clip-rule="nonzero"/></clipPath><clipPath id="id7"><path d="M 164.777344 76.738281 L 259.277344 76.738281 L 259.277344 171.238281 L 164.777344 171.238281 Z M 164.777344 76.738281 " clip-rule="nonzero"/></clipPath></defs><g clip-path="url(#id1)"><g clip-path="url(#id2)"><path fill="#f87474" d="M 152.003906 296.914062 C 156.246094 299.699219 161.265625 302.105469 166.457031 303.453125 C 171.648438 304.800781 176.871094 305.210938 181.882812 304.835938 C 181.996094 304.8125 182.09375 304.835938 182.203125 304.8125 C 201.125 303.007812 218.171875 289.699219 223.460938 270.339844 L 240.648438 204.164062 L 149.910156 180.597656 L 132.734375 246.722656 C 127.898438 266.355469 136.117188 286.230469 152.003906 296.914062 " fill-opacity="1" fill-rule="nonzero"/></g></g><g clip-path="url(#id3)"><g clip-path="url(#id4)"><path fill="#000000" d="M 273.992188 296.652344 C 278.234375 299.433594 283.257812 301.839844 288.445312 303.1875 C 293.636719 304.535156 298.863281 304.949219 303.875 304.570312 C 303.984375 304.546875 304.082031 304.570312 304.195312 304.546875 C 323.113281 302.746094 340.164062 289.433594 345.453125 270.078125 L 362.640625 203.902344 L 271.902344 180.332031 L 254.726562 246.460938 C 249.886719 266.089844 258.105469 285.964844 273.992188 296.652344 " fill-opacity="1" fill-rule="nonzero"/></g></g><g clip-path="url(#id5)"><g clip-path="url(#id6)"><path fill="#000000" d="M 366.710938 64.269531 C 362.476562 61.476562 357.460938 59.054688 352.277344 57.695312 C 347.089844 56.332031 341.863281 55.90625 336.851562 56.269531 C 336.742188 56.292969 336.644531 56.269531 336.53125 56.292969 C 317.609375 58.046875 300.523438 71.3125 295.183594 90.652344 L 277.820312 156.785156 L 368.5 180.59375 L 385.847656 114.511719 C 390.738281 94.890625 382.570312 74.996094 366.710938 64.269531 " fill-opacity="1" fill-rule="nonzero"/></g></g><g fill="#000000" fill-opacity="1"><g transform="translate(389.774167, 303.86002)"><g><path d="M 33.640625 -68.703125 L 65.859375 -68.703125 C 68.585938 -68.703125 70.867188 -67.78125 72.703125 -65.9375 C 74.546875 -64.101562 75.46875 -61.820312 75.46875 -59.09375 C 75.46875 -56.476562 74.546875 -54.222656 72.703125 -52.328125 C 70.867188 -50.429688 68.585938 -49.484375 65.859375 -49.484375 L 33.640625 -49.484375 L 33.640625 -10.5 C 33.640625 -7.53125 32.597656 -5.035156 30.515625 -3.015625 C 28.441406 -1.003906 25.984375 0 23.140625 0 C 20.171875 0 17.675781 -1.003906 15.65625 -3.015625 C 13.644531 -5.035156 12.640625 -7.53125 12.640625 -10.5 L 12.640625 -109.8125 C 12.640625 -112.78125 13.644531 -115.269531 15.65625 -117.28125 C 17.675781 -119.300781 20.171875 -120.3125 23.140625 -120.3125 L 72.96875 -120.3125 C 75.695312 -120.3125 77.976562 -119.390625 79.8125 -117.546875 C 81.65625 -115.710938 82.578125 -113.429688 82.578125 -110.703125 C 82.578125 -108.097656 81.65625 -105.84375 79.8125 -103.9375 C 77.976562 -102.039062 75.695312 -101.09375 72.96875 -101.09375 L 33.640625 -101.09375 Z M 33.640625 -68.703125 "/></g></g></g><g fill="#000000" fill-opacity="1"><g transform="translate(470.217287, 303.86002)"><g><path d="M 87.5625 -14.765625 C 88.632812 -13.222656 89.171875 -11.445312 89.171875 -9.4375 C 89.171875 -7.65625 88.695312 -5.960938 87.75 -4.359375 C 86.800781 -2.753906 85.554688 -1.476562 84.015625 -0.53125 C 82.347656 0.53125 80.566406 1.0625 78.671875 1.0625 C 76.890625 1.0625 75.195312 0.585938 73.59375 -0.359375 C 71.988281 -1.304688 70.710938 -2.550781 69.765625 -4.09375 L 44.140625 -45.921875 L 33.640625 -45.921875 L 33.640625 -10.5 C 33.640625 -7.53125 32.597656 -5.035156 30.515625 -3.015625 C 28.441406 -1.003906 25.984375 0 23.140625 0 C 20.171875 0 17.675781 -1.003906 15.65625 -3.015625 C 13.644531 -5.035156 12.640625 -7.53125 12.640625 -10.5 L 12.640625 -109.8125 C 12.640625 -112.78125 13.644531 -115.269531 15.65625 -117.28125 C 17.675781 -119.300781 20.171875 -120.3125 23.140625 -120.3125 L 49.828125 -120.3125 C 56.835938 -120.3125 63.25 -118.707031 69.0625 -115.5 C 74.875 -112.300781 79.46875 -107.882812 82.84375 -102.25 C 86.226562 -96.613281 87.921875 -90.238281 87.921875 -83.125 C 87.921875 -75.40625 85.960938 -68.609375 82.046875 -62.734375 C 78.128906 -56.859375 72.910156 -52.441406 66.390625 -49.484375 Z M 49.296875 -65.140625 C 54.285156 -65.140625 58.46875 -66.828125 61.84375 -70.203125 C 65.226562 -73.585938 66.921875 -77.894531 66.921875 -83.125 C 66.921875 -88.34375 65.226562 -92.640625 61.84375 -96.015625 C 58.46875 -99.398438 54.285156 -101.09375 49.296875 -101.09375 L 33.640625 -101.09375 L 33.640625 -65.140625 Z M 49.296875 -65.140625 "/></g></g></g><g fill="#000000" fill-opacity="1"><g transform="translate(555.465666, 303.86002)"><g><path d="M 23.140625 0 C 20.171875 0 17.675781 -1.003906 15.65625 -3.015625 C 13.644531 -5.035156 12.640625 -7.53125 12.640625 -10.5 L 12.640625 -109.8125 C 12.640625 -112.78125 13.644531 -115.269531 15.65625 -117.28125 C 17.675781 -119.300781 20.171875 -120.3125 23.140625 -120.3125 C 25.984375 -120.3125 28.441406 -119.300781 30.515625 -117.28125 C 32.597656 -115.269531 33.640625 -112.78125 33.640625 -109.8125 L 33.640625 -10.5 C 33.640625 -7.53125 32.597656 -5.035156 30.515625 -3.015625 C 28.441406 -1.003906 25.984375 0 23.140625 0 Z M 23.140625 0 "/></g></g></g><g fill="#000000" fill-opacity="1"><g transform="translate(592.839424, 303.86002)"><g><path d="M 72.96875 -19.21875 C 75.695312 -19.21875 77.976562 -18.296875 79.8125 -16.453125 C 81.65625 -14.617188 82.578125 -12.335938 82.578125 -9.609375 C 82.578125 -7.003906 81.65625 -4.75 79.8125 -2.84375 C 77.976562 -0.945312 75.695312 0 72.96875 0 L 23.140625 0 C 20.171875 0 17.675781 -1.003906 15.65625 -3.015625 C 13.644531 -5.035156 12.640625 -7.53125 12.640625 -10.5 L 12.640625 -109.8125 C 12.640625 -112.78125 13.644531 -115.269531 15.65625 -117.28125 C 17.675781 -119.300781 20.171875 -120.3125 23.140625 -120.3125 L 72.96875 -120.3125 C 75.695312 -120.3125 77.976562 -119.390625 79.8125 -117.546875 C 81.65625 -115.710938 82.578125 -113.429688 82.578125 -110.703125 C 82.578125 -108.097656 81.65625 -105.84375 79.8125 -103.9375 C 77.976562 -102.039062 75.695312 -101.09375 72.96875 -101.09375 L 33.640625 -101.09375 L 33.640625 -68.703125 L 68.171875 -68.703125 C 70.773438 -68.703125 72.992188 -67.75 74.828125 -65.84375 C 76.671875 -63.945312 77.59375 -61.695312 77.59375 -59.09375 C 77.59375 -56.476562 76.671875 -54.222656 74.828125 -52.328125 C 72.992188 -50.429688 70.773438 -49.484375 68.171875 -49.484375 L 33.640625 -49.484375 L 33.640625 -19.21875 Z M 72.96875 -19.21875 "/></g></g></g><g fill="#000000" fill-opacity="1"><g transform="translate(673.282548, 303.86002)"><g><path d="M 22.0625 0 C 19.21875 0 16.785156 -1.003906 14.765625 -3.015625 C 12.753906 -5.035156 11.75 -7.53125 11.75 -10.5 L 11.75 -109.8125 C 11.75 -112.78125 12.753906 -115.269531 14.765625 -117.28125 C 16.785156 -119.300781 19.21875 -120.3125 22.0625 -120.3125 C 23.96875 -120.3125 25.691406 -119.894531 27.234375 -119.0625 C 28.773438 -118.238281 29.960938 -117.175781 30.796875 -115.875 L 87.390625 -39.328125 L 87.390625 -109.8125 C 87.390625 -112.78125 88.394531 -115.269531 90.40625 -117.28125 C 92.425781 -119.300781 94.921875 -120.3125 97.890625 -120.3125 C 100.859375 -120.3125 103.347656 -119.273438 105.359375 -117.203125 C 107.378906 -115.128906 108.390625 -112.664062 108.390625 -109.8125 L 108.390625 -10.5 C 108.390625 -7.65625 107.378906 -5.191406 105.359375 -3.109375 C 103.347656 -1.035156 100.914062 0 98.0625 0 C 96.289062 0 94.601562 -0.410156 93 -1.234375 C 91.394531 -2.066406 90.117188 -3.140625 89.171875 -4.453125 L 32.75 -80.8125 L 32.75 -10.5 C 32.75 -7.65625 31.707031 -5.191406 29.625 -3.109375 C 27.550781 -1.035156 25.03125 0 22.0625 0 Z M 22.0625 0 "/></g></g></g><g fill="#000000" fill-opacity="1"><g transform="translate(784.514925, 303.86002)"><g><path d="M 51.4375 -120.3125 C 62.59375 -120.3125 72.707031 -117.757812 81.78125 -112.65625 C 90.863281 -107.5625 98.015625 -100.441406 103.234375 -91.296875 C 108.453125 -82.160156 111.0625 -71.78125 111.0625 -60.15625 C 111.0625 -48.53125 108.453125 -38.148438 103.234375 -29.015625 C 98.015625 -19.878906 90.863281 -12.757812 81.78125 -7.65625 C 72.707031 -2.550781 62.59375 0 51.4375 0 L 23.140625 0 C 20.171875 0 17.675781 -1.003906 15.65625 -3.015625 C 13.644531 -5.035156 12.640625 -7.53125 12.640625 -10.5 L 12.640625 -109.8125 C 12.640625 -112.78125 13.644531 -115.269531 15.65625 -117.28125 C 17.675781 -119.300781 20.171875 -120.3125 23.140625 -120.3125 Z M 51.4375 -19.21875 C 58.789062 -19.21875 65.40625 -20.9375 71.28125 -24.375 C 77.15625 -27.820312 81.753906 -32.660156 85.078125 -38.890625 C 88.398438 -45.117188 90.0625 -52.207031 90.0625 -60.15625 C 90.0625 -68.101562 88.398438 -75.191406 85.078125 -81.421875 C 81.753906 -87.648438 77.15625 -92.484375 71.28125 -95.921875 C 65.40625 -99.367188 58.789062 -101.09375 51.4375 -101.09375 L 33.640625 -101.09375 L 33.640625 -19.21875 Z M 51.4375 -19.21875 "/></g></g></g><g fill="#000000" fill-opacity="1"><g transform="translate(896.993128, 303.86002)"><g><path d="M 50.015625 1.0625 C 43.128906 1.0625 36.363281 0.113281 29.71875 -1.78125 C 23.070312 -3.675781 17.734375 -5.929688 13.703125 -8.546875 C 10.378906 -11.035156 8.71875 -13.765625 8.71875 -16.734375 C 8.71875 -19.578125 9.695312 -21.976562 11.65625 -23.9375 C 13.613281 -25.894531 15.898438 -26.875 18.515625 -26.875 C 20.296875 -26.875 21.894531 -26.457031 23.3125 -25.625 C 28.414062 -23.132812 33.015625 -21.234375 37.109375 -19.921875 C 41.203125 -18.617188 45.859375 -17.96875 51.078125 -17.96875 C 57.847656 -17.96875 63.304688 -19.300781 67.453125 -21.96875 C 71.609375 -24.644531 73.6875 -28.117188 73.6875 -32.390625 C 73.6875 -35.472656 72.585938 -38.023438 70.390625 -40.046875 C 68.191406 -42.066406 65.398438 -43.664062 62.015625 -44.84375 C 58.640625 -46.03125 54.046875 -47.398438 48.234375 -48.953125 C 39.566406 -51.316406 32.535156 -53.65625 27.140625 -55.96875 C 21.742188 -58.289062 17.085938 -61.789062 13.171875 -66.46875 C 9.253906 -71.15625 7.296875 -77.414062 7.296875 -85.25 C 7.296875 -92.96875 9.222656 -99.523438 13.078125 -104.921875 C 16.929688 -110.316406 22.09375 -114.378906 28.5625 -117.109375 C 35.03125 -119.835938 42.117188 -121.203125 49.828125 -121.203125 C 56.117188 -121.203125 62.796875 -120.070312 69.859375 -117.8125 C 76.921875 -115.5625 82.644531 -113.015625 87.03125 -110.171875 C 90.113281 -108.035156 91.65625 -105.484375 91.65625 -102.515625 C 91.65625 -100.023438 90.765625 -97.890625 88.984375 -96.109375 C 87.210938 -94.328125 85.140625 -93.4375 82.765625 -93.4375 C 81.097656 -93.4375 79.492188 -93.851562 77.953125 -94.6875 C 73.210938 -97.300781 68.796875 -99.171875 64.703125 -100.296875 C 60.609375 -101.421875 55.648438 -101.984375 49.828125 -101.984375 C 43.066406 -101.984375 37.757812 -100.46875 33.90625 -97.4375 C 30.050781 -94.414062 28.125 -90.710938 28.125 -86.328125 C 28.125 -83.003906 29.28125 -80.242188 31.59375 -78.046875 C 33.90625 -75.847656 36.8125 -74.066406 40.3125 -72.703125 C 43.8125 -71.335938 48.644531 -69.828125 54.8125 -68.171875 C 63.238281 -65.910156 70.09375 -63.648438 75.375 -61.390625 C 80.65625 -59.140625 85.191406 -55.789062 88.984375 -51.34375 C 92.785156 -46.894531 94.6875 -41.050781 94.6875 -33.8125 C 94.6875 -26.101562 92.550781 -19.609375 88.28125 -14.328125 C 84.007812 -9.046875 78.429688 -5.160156 71.546875 -2.671875 C 64.671875 -0.179688 57.492188 1.0625 50.015625 1.0625 Z M 50.015625 1.0625 "/></g></g></g><g clip-path="url(#id7)"><path fill="#000000" d="M 212.027344 76.738281 C 185.929688 76.738281 164.777344 97.890625 164.777344 123.988281 C 164.777344 150.082031 185.929688 171.238281 212.027344 171.238281 C 238.121094 171.238281 259.277344 150.082031 259.277344 123.988281 C 259.277344 97.890625 238.121094 76.738281 212.027344 76.738281 " fill-opacity="1" fill-rule="nonzero"/></g></svg>